<svg width="28" height="29" viewBox="0 0 28 29" fill="none" xmlns="http://www.w3.org/2000/svg">
<rect x="0.5" y="1" width="27" height="27" rx="13.5" stroke="#252525"/>
<path d="M20.0384 11.2871C20.0446 11.4279 20.0446 11.5623 20.0446 11.7031C20.0508 15.972 16.9144 20.9 11.1789 20.9C9.48731 20.9 7.82655 20.3944 6.40039 19.4472C6.64734 19.4792 6.8943 19.492 7.14125 19.492C8.54271 19.492 9.90713 19.0056 11.0123 18.1032C9.6787 18.0776 8.50567 17.1752 8.0982 15.8568C8.56741 15.9528 9.04897 15.9336 9.50583 15.7992C8.05498 15.5048 7.0116 14.18 7.00543 12.6375C7.00543 12.6247 7.00543 12.6119 7.00543 12.5991C7.4376 12.8488 7.92533 12.9896 8.41924 13.0024C7.05482 12.0551 6.62882 10.1671 7.45612 8.68874C9.0428 10.7111 11.3765 11.9335 13.8831 12.0679C13.63 10.9479 13.9757 9.77034 14.7845 8.97674C16.0378 7.75433 18.0134 7.81833 19.1988 9.11754C19.8964 8.97674 20.5694 8.70794 21.1806 8.33034C20.946 9.07914 20.4582 9.71274 19.81 10.1159C20.4274 10.0391 21.0324 9.86634 21.6004 9.61034C21.1806 10.2631 20.6496 10.8263 20.0384 11.2871Z" fill="#252525"/>
</svg>
