<svg width="28" height="29" viewBox="0 0 28 29" fill="none" xmlns="http://www.w3.org/2000/svg">
<rect x="0.5" y="1" width="27" height="27" rx="13.5" stroke="#252525"/>
<g clip-path="url(#clip0_3267_5243)">
<path d="M20.8189 6.5H7.18111C6.86786 6.5 6.56744 6.62444 6.34594 6.84594C6.12444 7.06744 6 7.36786 6 7.68111V21.3189C6 21.6321 6.12444 21.9326 6.34594 22.1541C6.56744 22.3756 6.86786 22.5 7.18111 22.5H20.8189C21.1321 22.5 21.4326 22.3756 21.6541 22.1541C21.8756 21.9326 22 21.6321 22 21.3189V7.68111C22 7.36786 21.8756 7.06744 21.6541 6.84594C21.4326 6.62444 21.1321 6.5 20.8189 6.5ZM10.7689 20.13H8.36333V12.4889H10.7689V20.13ZM9.56445 11.43C9.29158 11.4285 9.02528 11.3461 8.79916 11.1934C8.57304 11.0407 8.39723 10.8244 8.29392 10.5718C8.19061 10.3192 8.16443 10.0417 8.21869 9.7743C8.27294 9.50688 8.4052 9.26152 8.59877 9.06919C8.79234 8.87686 9.03854 8.74618 9.30631 8.69364C9.57408 8.6411 9.85141 8.66906 10.1033 8.77399C10.3552 8.87892 10.5704 9.05611 10.7216 9.28321C10.8729 9.51031 10.9535 9.77713 10.9533 10.05C10.9559 10.2327 10.9217 10.414 10.8527 10.5832C10.7837 10.7524 10.6813 10.9059 10.5517 11.0347C10.4221 11.1635 10.2679 11.2649 10.0983 11.3328C9.92867 11.4007 9.74711 11.4337 9.56445 11.43ZM19.6356 20.1367H17.2311V15.9622C17.2311 14.7311 16.7078 14.3511 16.0322 14.3511C15.3189 14.3511 14.6189 14.8889 14.6189 15.9933V20.1367H12.2133V12.4944H14.5267V13.5533H14.5578C14.79 13.0833 15.6033 12.28 16.8444 12.28C18.1867 12.28 19.6367 13.0767 19.6367 15.41L19.6356 20.1367Z" fill="#252525"/>
</g>
<defs>
<clipPath id="clip0_3267_5243">
<rect width="16" height="16" fill="white" transform="translate(6 6.5)"/>
</clipPath>
</defs>
</svg>
