<svg width="24" height="24" viewBox="0 0 24 24" fill="none" xmlns="http://www.w3.org/2000/svg">
<path fill-rule="evenodd" clip-rule="evenodd" d="M1.463 12.543C1.08 12.838 0.592 12.993 0 13.011V13.921H2.051V20.75H3.306V11.403H2.182C2.09264 11.8592 1.83625 12.2658 1.463 12.543ZM11.153 15.51C10.8787 15.2366 10.5489 15.0252 10.186 14.89C9.61256 14.677 8.99332 14.6181 8.39 14.719C8.02326 14.7794 7.67215 14.9119 7.357 15.109C7.201 15.204 7.066 15.319 6.952 15.451L7.553 12.591H11.565V11.403H6.677L5.671 16.188L6.834 16.623C7.05196 16.3438 7.33156 16.1188 7.65094 15.9656C7.97032 15.8124 8.32082 15.7352 8.675 15.74C8.972 15.74 9.244 15.786 9.491 15.878C9.74 15.97 9.955 16.105 10.139 16.279C10.322 16.456 10.465 16.669 10.569 16.919C10.674 17.169 10.727 17.458 10.727 17.783C10.727 18.073 10.677 18.341 10.577 18.587C10.477 18.834 10.337 19.047 10.159 19.227C9.979 19.407 9.765 19.545 9.512 19.642C9.24448 19.7407 8.96112 19.7895 8.676 19.786C8.372 19.786 8.097 19.736 7.853 19.635C7.61647 19.5389 7.39955 19.4003 7.213 19.226C7.02845 19.0525 6.87965 18.8446 6.775 18.614C6.66556 18.3765 6.59694 18.1223 6.572 17.862L5.41 18.152C5.47669 18.9028 5.83018 19.5991 6.397 20.096C6.68 20.346 7.016 20.546 7.403 20.696C7.791 20.846 8.215 20.921 8.677 20.921C9.191 20.921 9.653 20.837 10.062 20.671C10.472 20.504 10.82 20.277 11.108 19.992C11.395 19.706 11.615 19.372 11.768 18.99C11.92 18.608 11.997 18.201 11.997 17.77C11.997 17.296 11.923 16.867 11.775 16.484C11.6371 16.1195 11.4254 15.7876 11.153 15.509V15.51ZM14.959 5.28298H7.923V3.00098L3.136 5.78998L7.923 8.57998V6.29598H14.959C18.839 6.29598 21.995 9.36598 21.995 13.141C21.995 16.915 18.839 19.986 14.959 19.986V21.001C19.393 21.001 23 17.475 23 13.141C23 8.80898 19.393 5.28298 14.96 5.28298H14.959Z" fill="white" fill-opacity="0.5"/>
</svg>
