<svg width="48" height="48" viewBox="0 0 48 48" fill="none" xmlns="http://www.w3.org/2000/svg">
<g filter="url(#filter0_d_3281_6012)">
<rect x="4" y="2.00098" width="40" height="40" rx="20" fill="white" fill-opacity="0.3" style="mix-blend-mode:overlay"/>
<rect x="4" y="2.00098" width="40" height="40" rx="20" fill="black" fill-opacity="0.3" style="mix-blend-mode:screen"/>
<path fill-rule="evenodd" clip-rule="evenodd" d="M24 42.001C12.9543 42.001 4 33.0467 4 22.001C4 10.9553 12.9543 2.00098 24 2.00098C35.0457 2.00098 44 10.9553 44 22.001C44 33.0467 35.0457 42.001 24 42.001ZM20.7581 27.9348L29.7472 22.9236C30.0843 22.7357 30.0843 22.2662 29.7472 22.0783L20.7581 17.0671C20.421 16.8792 20 17.114 20 17.4898V27.5122C20 27.888 20.421 28.1227 20.7581 27.9348Z" fill="white"/>
</g>
<defs>
<filter id="filter0_d_3281_6012" x="0" y="0.000976562" width="48" height="48" filterUnits="userSpaceOnUse" color-interpolation-filters="sRGB">
<feFlood flood-opacity="0" result="BackgroundImageFix"/>
<feColorMatrix in="SourceAlpha" type="matrix" values="0 0 0 0 0 0 0 0 0 0 0 0 0 0 0 0 0 0 127 0" result="hardAlpha"/>
<feOffset dy="2"/>
<feGaussianBlur stdDeviation="2"/>
<feColorMatrix type="matrix" values="0 0 0 0 0 0 0 0 0 0 0 0 0 0 0 0 0 0 0.25 0"/>
<feBlend mode="normal" in2="BackgroundImageFix" result="effect1_dropShadow_3281_6012"/>
<feBlend mode="normal" in="SourceGraphic" in2="effect1_dropShadow_3281_6012" result="shape"/>
</filter>
</defs>
</svg>
