<svg width="38" height="38" viewBox="0 0 38 38" fill="none" xmlns="http://www.w3.org/2000/svg">
<g filter="url(#filter0_d_3294_4597)">
<rect x="4" y="2" width="30" height="30" rx="15" fill="white" fill-opacity="0.3" style="mix-blend-mode:overlay"/>
<rect x="4" y="2" width="30" height="30" rx="15" fill="black" fill-opacity="0.3" style="mix-blend-mode:screen"/>
<path fill-rule="evenodd" clip-rule="evenodd" d="M19 32C10.7157 32 4 25.2843 4 17C4 8.71573 10.7157 2 19 2C27.2843 2 34 8.71573 34 17C34 25.2843 27.2843 32 19 32ZM16.5686 21.4504L23.3104 17.692C23.5632 17.5511 23.5632 17.1989 23.3104 17.058L16.5686 13.2996C16.3158 13.1587 16 13.3348 16 13.6166V21.1334C16 21.4152 16.3158 21.5913 16.5686 21.4504Z" fill="white"/>
</g>
<defs>
<filter id="filter0_d_3294_4597" x="0" y="0" width="38" height="38" filterUnits="userSpaceOnUse" color-interpolation-filters="sRGB">
<feFlood flood-opacity="0" result="BackgroundImageFix"/>
<feColorMatrix in="SourceAlpha" type="matrix" values="0 0 0 0 0 0 0 0 0 0 0 0 0 0 0 0 0 0 127 0" result="hardAlpha"/>
<feOffset dy="2"/>
<feGaussianBlur stdDeviation="2"/>
<feColorMatrix type="matrix" values="0 0 0 0 0 0 0 0 0 0 0 0 0 0 0 0 0 0 0.25 0"/>
<feBlend mode="normal" in2="BackgroundImageFix" result="effect1_dropShadow_3294_4597"/>
<feBlend mode="normal" in="SourceGraphic" in2="effect1_dropShadow_3294_4597" result="shape"/>
</filter>
</defs>
</svg>
