<svg width="28" height="28" viewBox="0 0 28 28" fill="none" xmlns="http://www.w3.org/2000/svg">
<rect x="0.5" y="0.5" width="27" height="27" rx="13.5" stroke="white"/>
<path d="M20.0384 10.7871C20.0446 10.9279 20.0446 11.0623 20.0446 11.2031C20.0508 15.472 16.9144 20.4 11.1789 20.4C9.48731 20.4 7.82655 19.8944 6.40039 18.9472C6.64734 18.9792 6.8943 18.992 7.14125 18.992C8.54271 18.992 9.90713 18.5056 11.0123 17.6032C9.6787 17.5776 8.50567 16.6752 8.0982 15.3568C8.56741 15.4528 9.04897 15.4336 9.50583 15.2992C8.05498 15.0048 7.0116 13.68 7.00543 12.1375C7.00543 12.1247 7.00543 12.1119 7.00543 12.0991C7.4376 12.3488 7.92533 12.4896 8.41924 12.5024C7.05482 11.5551 6.62882 9.66714 7.45612 8.18874C9.0428 10.2111 11.3765 11.4335 13.8831 11.5679C13.63 10.4479 13.9757 9.27034 14.7845 8.47674C16.0378 7.25433 18.0134 7.31833 19.1988 8.61754C19.8964 8.47674 20.5694 8.20794 21.1806 7.83034C20.946 8.57914 20.4582 9.21274 19.81 9.61594C20.4274 9.53914 21.0324 9.36634 21.6004 9.11034C21.1806 9.76314 20.6496 10.3263 20.0384 10.7871Z" fill="white"/>
</svg>
