<svg width="48" height="48" viewBox="0 0 48 48" fill="none" xmlns="http://www.w3.org/2000/svg">
<g filter="url(#filter0_d_3403_4317)">
<rect x="4" y="2" width="40" height="40" rx="20" fill="white" fill-opacity="0.3" style="mix-blend-mode:overlay"/>
<rect x="4" y="2" width="40" height="40" rx="20" fill="black" fill-opacity="0.3" style="mix-blend-mode:screen"/>
<path fill-rule="evenodd" clip-rule="evenodd" d="M4 22C4 33.0457 12.9543 42 24 42C35.0457 42 44 33.0457 44 22C44 10.9543 35.0457 2 24 2C12.9543 2 4 10.9543 4 22ZM25.6911 14.999H28.7309C28.92 14.999 29.0734 15.1524 29.0734 15.3415V28.6565C29.0734 28.8457 28.92 28.999 28.7309 28.999H25.6911C25.502 28.999 25.3486 28.8457 25.3486 28.6565V15.3415C25.3486 15.1524 25.502 14.999 25.6911 14.999ZM22.3089 14.999H19.2691C19.08 14.999 18.9266 15.1524 18.9266 15.3415V28.6565C18.9266 28.8457 19.08 28.999 19.2691 28.999H22.3089C22.498 28.999 22.6514 28.8457 22.6514 28.6565V15.3415C22.6514 15.1524 22.498 14.999 22.3089 14.999Z" fill="#272727"/>
</g>
<defs>
<filter id="filter0_d_3403_4317" x="0" y="0" width="48" height="48" filterUnits="userSpaceOnUse" color-interpolation-filters="sRGB">
<feFlood flood-opacity="0" result="BackgroundImageFix"/>
<feColorMatrix in="SourceAlpha" type="matrix" values="0 0 0 0 0 0 0 0 0 0 0 0 0 0 0 0 0 0 127 0" result="hardAlpha"/>
<feOffset dy="2"/>
<feGaussianBlur stdDeviation="2"/>
<feColorMatrix type="matrix" values="0 0 0 0 0 0 0 0 0 0 0 0 0 0 0 0 0 0 0.25 0"/>
<feBlend mode="normal" in2="BackgroundImageFix" result="effect1_dropShadow_3403_4317"/>
<feBlend mode="normal" in="SourceGraphic" in2="effect1_dropShadow_3403_4317" result="shape"/>
</filter>
</defs>
</svg>
