<svg width="40" height="40" viewBox="0 0 40 40" fill="none" xmlns="http://www.w3.org/2000/svg">
<path fill-rule="evenodd" clip-rule="evenodd" d="M0 20C0 31.0457 8.9543 40 20 40C31.0457 40 40 31.0457 40 20C40 8.9543 31.0457 0 20 0C8.9543 0 0 8.9543 0 20ZM21.6911 12.999H24.7309C24.92 12.999 25.0734 13.1524 25.0734 13.3415V26.6565C25.0734 26.8457 24.92 26.999 24.7309 26.999H21.6911C21.502 26.999 21.3486 26.8457 21.3486 26.6565V13.3415C21.3486 13.1524 21.502 12.999 21.6911 12.999ZM18.3089 12.999H15.2691C15.08 12.999 14.9266 13.1524 14.9266 13.3415V26.6565C14.9266 26.8457 15.08 26.999 15.2691 26.999H18.3089C18.498 26.999 18.6514 26.8457 18.6514 26.6565V13.3415C18.6514 13.1524 18.498 12.999 18.3089 12.999Z" fill="#00AF5A"/>
</svg>
