<svg width="21" height="18" viewBox="0 0 21 18" fill="none" xmlns="http://www.w3.org/2000/svg">
<path fill-rule="evenodd" clip-rule="evenodd" d="M7.897 3.26498H14.807V5.52498L19.507 2.76398L14.808 0.000976562V2.26098H7.898C3.543 2.26098 0 5.75298 0 10.044C0 14.335 3.543 17.827 7.897 17.827V16.823C4.087 16.823 0.987 13.782 0.987 10.044C0.987 6.30598 4.087 3.26498 7.897 3.26498ZM10.654 9.70298C10.278 9.99298 9.799 10.148 9.217 10.165V11.066H11.232V17.829H12.464V8.57298H11.36C11.266 9.03498 11.03 9.41098 10.654 9.70298ZM20.779 13.606C20.6445 13.2453 20.4368 12.9164 20.169 12.64C19.9002 12.3693 19.5762 12.1599 19.219 12.026C18.8235 11.8787 18.404 11.8062 17.982 11.812C17.811 11.812 17.635 11.827 17.455 11.857C17.0958 11.9187 16.7519 12.0491 16.442 12.241C16.2925 12.333 16.1582 12.4477 16.044 12.581L16.634 9.74798H20.574V8.57298H15.774L14.786 13.312L15.928 13.742C16.131 13.4757 16.3924 13.2595 16.692 13.11C17.004 12.948 17.352 12.868 17.738 12.868C18.028 12.868 18.296 12.914 18.539 13.006C18.7782 13.0936 18.9963 13.2308 19.179 13.4084C19.3616 13.5861 19.5047 13.8003 19.599 14.037C19.701 14.285 19.752 14.57 19.752 14.893C19.752 15.18 19.703 15.445 19.605 15.689C19.512 15.9252 19.3725 16.1405 19.195 16.322C19.0153 16.5032 18.7987 16.6437 18.56 16.734C18.2975 16.8319 18.0191 16.8804 17.739 16.877C17.439 16.877 17.169 16.827 16.93 16.727C16.69 16.627 16.481 16.493 16.302 16.323C16.1206 16.1505 15.9746 15.9443 15.872 15.716C15.7646 15.4807 15.697 15.2293 15.672 14.972L14.531 15.259C14.5962 16.0014 14.9429 16.6908 15.5 17.186C15.778 17.434 16.107 17.631 16.488 17.779C16.869 17.927 17.286 18.001 17.74 18.001C18.2052 18.008 18.6672 17.9237 19.1 17.753C19.502 17.587 19.844 17.363 20.126 17.08C20.409 16.798 20.625 16.467 20.775 16.088C20.9257 15.7031 21.002 15.2932 21 14.88C21.0038 14.4455 20.9289 14.0138 20.779 13.606Z" fill="white" fill-opacity="0.5"/>
</svg>
